<mxfile host="app.diagrams.net" modified="2023-10-07T17:07:39.301Z" agent="Mozilla/5.0 (Windows NT 10.0; Win64; x64) AppleWebKit/537.36 (KHTML, like Gecko) Chrome/117.0.0.0 Safari/537.36" etag="dzB4vb7FYrc1I78ZR5Bv" version="22.0.4" type="device">
  <diagram name="Page-1" id="1P2irHu0pe8eAoLrlwkr">
    <mxGraphModel dx="880" dy="484" grid="1" gridSize="10" guides="1" tooltips="1" connect="1" arrows="1" fold="1" page="1" pageScale="1" pageWidth="827" pageHeight="1169" math="0" shadow="0">
      <root>
        <mxCell id="0" />
        <mxCell id="1" parent="0" />
        <mxCell id="WlryiE9JoQIFY8JfXMQj-2" value="" style="rounded=0;whiteSpace=wrap;html=1;fillColor=#60a917;fontColor=#ffffff;strokeColor=#2D7600;" vertex="1" parent="1">
          <mxGeometry x="130" y="40" width="580" height="440" as="geometry" />
        </mxCell>
        <mxCell id="WlryiE9JoQIFY8JfXMQj-3" value="Score" style="rounded=0;whiteSpace=wrap;html=1;fillColor=#9ec4d6;fontColor=#ffffff;strokeColor=#006EAF;" vertex="1" parent="1">
          <mxGeometry x="160" y="70" width="120" height="40" as="geometry" />
        </mxCell>
        <mxCell id="WlryiE9JoQIFY8JfXMQj-5" value="" style="rounded=0;whiteSpace=wrap;html=1;fillColor=#c36a41;fontColor=#ffffff;strokeColor=#6D1F00;" vertex="1" parent="1">
          <mxGeometry x="300" y="40" width="250" height="440" as="geometry" />
        </mxCell>
        <mxCell id="WlryiE9JoQIFY8JfXMQj-4" value="pop up box.... When User clicks, game starts" style="rounded=0;whiteSpace=wrap;html=1;fillColor=#f8cecc;strokeColor=#b85450;" vertex="1" parent="1">
          <mxGeometry x="230" y="220" width="390" height="60" as="geometry" />
        </mxCell>
      </root>
    </mxGraphModel>
  </diagram>
</mxfile>
